<?xml version="1.0" standalone="no"?><!DOCTYPE svg PUBLIC "-//W3C//DTD SVG 1.1//EN" "http://www.w3.org/Graphics/SVG/1.1/DTD/svg11.dtd"><svg class="icon" width="200px" height="175.34px" viewBox="0 0 1168 1024" version="1.1" xmlns="http://www.w3.org/2000/svg">
<style type="text/css">
	.st0{fill:#515151;}
</style>
<path transform="scale(-1, 1) translate(-1168, 0)" class="st0" d="M0.589997 248.270909v569.465498h275.52879V238.712951H10.147955c-7.669966 0-9.557958 1.887992-9.557958 9.557958zM363.084405 817.736407h264.436838c6.253973 0 8.141964-1.887992 8.141964-9.557958V248.270909c0-7.669966-1.887992-9.557958-9.557958-9.557958H363.792402l-0.707997 579.023456zM707.87889 277.062783l138.76739 516.60173c8.731962 27.847878-5.427976 17.699922 65.253713 3.185986 59.707738-12.153947 137.705395-38.58583 201.189116-52.745768l-104.901539-400.018243c-11.563949-46.255797-26.431884-89.207608-36.579839-134.873407-38.231832 7.551967-244.612925 59.23574-263.728841 67.849702zM872.960164 895.852064c2.35999 6.135973 6.72597 27.965877 8.023965 34.10185l17.345924 65.371713c3.421985 10.737953 7.787966 19.351915 9.911956 28.673874l191.631158-54.043763c81.89164-23.717896 71.035688-10.029956 62.539726-49.323783l-25.723887-95.461581c-38.939829 7.551967-92.865592 25.369889-133.693413 35.281845l-130.035429 35.399845zM661.505094 68.085701c-0.589997 0.589997-1.415994 1.061995-1.769993 1.415994-7.905965 7.669966-5.427976 4.48398-7.079969 11.20995 2.24199 4.48398 5.191977 20.767909 6.84397 27.611879 6.253973 24.779891 18.525919 67.141705 27.729879 87.673615l193.873148-54.75176c18.997917-5.427976 51.801772-12.153947 66.905706-18.997916-4.955978-25.369889-23.245898-101.951552-32.449858-122.247463-8.613962 3.421985-21.947904 5.899974-30.797864 8.495963L661.505094 68.085701zM0.589997 914.259983v100.18156c0 9.793957 3.657984 9.557958 12.507945 9.557958h253.462887c7.669966 0 9.557958-1.887992 9.557958-9.557958v-100.18156c0-7.669966-1.887992-9.557958-9.557958-9.557958H10.147955c-7.669966 0-9.557958 1.887992-9.557958 9.557958zM363.084405 914.259983v109.739518h267.386825c10.383954-18.761918 5.191977-79.531651 5.191977-103.839544 0-8.141964-1.415994-8.731962-2.949987-15.457932l-242.488935-0.117999c-14.159938-0.235999-27.139881-3.657984-27.13988 9.675957zM0.589997 38.349832l-0.117999 89.207608c-0.235999 13.56994-3.185986 24.189894 9.675957 24.189893h256.412874c7.669966 0 9.557958-1.887992 9.557958-9.557958V44.957802c0-7.669966-1.887992-9.557958-9.557958-9.557958H16.047929c-6.253973 0-9.911956 1.179995-15.457932 2.949988zM363.084405 44.957802v106.789531h268.920818c7.433967-22.537901 3.657984-77.28966 3.657984-103.839543 0-7.905965-4.60198-12.507945-12.507945-12.507946H372.642363c-7.669966 0-9.557958 1.887992-9.557958 9.557958z"  /><path d="M652.655132 80.711645c1.651993-6.72597-0.825996-3.539984 7.079969-11.20995 0.353998-0.353998 1.179995-0.825996 1.769993-1.415994-8.259964 1.179995-6.371972 0.707997-11.799949 3.421985 0 14.867935 0.235999 4.837979 2.949987 9.203959z"  /></svg>