<?xml version="1.0" standalone="no"?>
<!DOCTYPE svg PUBLIC "-//W3C//DTD SVG 20010904//EN"
 "http://www.w3.org/TR/2001/REC-SVG-20010904/DTD/svg10.dtd">
<svg version="1.0" xmlns="http://www.w3.org/2000/svg"
 width="800.000000pt" height="800.000000pt" viewBox="0 0 800.000000 800.000000"
 preserveAspectRatio="xMidYMid meet">
<metadata>
Created by potrace 1.14, written by Peter Selinger 2001-2017
</metadata>
<g transform="translate(0.000000,800.000000) scale(0.100000,-0.100000)"
fill="#000000" stroke="none">
<path d="M1722 7482 c-5 -9 -21 -57 -36 -107 -15 -49 -34 -110 -41 -135 -8
-25 -16 -56 -19 -70 -3 -14 -15 -61 -26 -105 -19 -73 -66 -272 -76 -320 -17
-83 -17 -81 13 -93 26 -10 69 -24 86 -28 4 -1 8 -2 10 -4 1 -1 9 -3 17 -5 8
-2 60 -15 115 -30 55 -14 107 -28 115 -30 8 -1 35 -8 60 -15 25 -7 50 -13 55
-15 6 -1 17 -4 25 -7 8 -3 35 -11 60 -17 25 -7 74 -21 110 -32 58 -17 218 -62
370 -103 30 -8 111 -31 180 -51 69 -20 148 -42 175 -50 28 -7 115 -32 194 -54
196 -56 194 -56 190 -25 0 4 3 10 8 13 8 5 104 287 110 320 1 8 8 35 17 60 18
56 47 166 61 234 2 12 12 53 21 90 l16 68 -28 30 c-18 19 -49 36 -84 45 -75
21 -158 43 -200 55 -19 5 -93 25 -165 44 -71 20 -141 38 -155 41 -14 3 -34 8
-45 11 -11 4 -24 8 -30 9 -5 1 -37 10 -70 19 -33 9 -76 21 -95 25 -19 5 -87
22 -150 40 -113 31 -401 107 -430 115 -48 12 -262 69 -302 80 -43 13 -49 12
-56 -3z"/>
<path d="M3688 7248 c-16 -6 -29 -19 -33 -36 -12 -44 -20 -406 -9 -423 3 -5 0
-9 -6 -9 -6 0 -9 -4 -6 -8 3 -5 8 -55 11 -113 7 -115 9 -132 19 -171 l8 -27
918 1 918 0 4 21 c2 12 3 185 2 385 0 270 -4 366 -13 375 -15 15 -1769 19
-1813 5z"/>
<path d="M6124 7243 c-22 -22 -21 -745 1 -767 14 -13 122 -15 926 -15 862 1
912 2 929 19 16 16 18 44 16 386 l-1 369 -34 11 c-24 8 -305 11 -928 11 -757
0 -897 -2 -909 -14z"/>
<path d="M1344 6058 c-3 -5 -7 -19 -8 -31 -2 -12 -15 -67 -31 -122 -15 -55
-29 -107 -31 -115 -2 -8 -12 -46 -23 -85 -11 -38 -33 -118 -49 -177 -17 -59
-33 -111 -36 -116 -3 -4 -7 -19 -10 -33 -3 -13 -14 -56 -25 -94 -11 -39 -22
-81 -25 -95 -6 -28 -9 -40 -56 -215 -18 -66 -36 -136 -40 -155 -8 -34 -85
-324 -114 -428 -8 -29 -15 -55 -15 -57 -1 -3 -1 -6 -2 -7 0 -2 -2 -10 -4 -18
-1 -8 -8 -35 -15 -60 -7 -25 -14 -52 -15 -60 -2 -8 -13 -51 -25 -95 -12 -44
-43 -163 -70 -265 -26 -102 -51 -192 -54 -200 -3 -8 -8 -26 -10 -40 -3 -14
-19 -77 -36 -140 -17 -63 -32 -124 -35 -135 -2 -11 -4 -20 -5 -20 -1 0 -102
-385 -114 -435 -2 -8 -14 -51 -25 -95 -12 -44 -24 -91 -27 -104 -3 -14 -7 -28
-9 -31 -2 -4 -7 -21 -10 -38 -3 -18 -12 -51 -19 -75 -8 -23 -17 -58 -20 -77
l-6 -35 208 -52 c114 -29 239 -62 277 -72 219 -62 613 -172 630 -176 27 -6
241 -55 285 -65 19 -5 98 -25 175 -46 173 -46 198 -49 212 -32 5 7 24 67 42
133 49 186 59 224 82 305 12 41 22 80 23 85 1 6 5 19 9 30 3 11 8 31 11 45 5
26 9 40 46 170 11 41 23 83 25 93 2 10 7 27 10 37 3 10 8 28 10 39 7 32 12 49
39 146 14 50 25 90 25 90 -1 0 5 20 12 45 7 25 13 50 15 55 1 6 18 71 38 145
20 74 39 142 41 150 1 8 17 67 35 130 17 63 33 122 34 130 2 8 9 35 16 60 7
25 14 52 16 60 2 8 15 58 29 110 15 52 33 120 41 150 8 30 27 98 41 150 14 52
27 100 28 105 1 6 4 17 7 25 6 16 77 284 83 310 4 20 55 207 112 415 24 88 46
167 48 175 1 8 10 42 19 75 9 33 18 67 20 75 2 8 9 35 16 59 6 23 10 44 8 46
-4 3 -99 34 -124 40 -10 3 -41 11 -69 19 -27 8 -86 24 -130 36 -44 12 -120 33
-170 46 -49 14 -101 27 -115 30 -14 3 -67 16 -118 30 -51 14 -100 27 -110 29
-9 2 -118 29 -242 60 -124 31 -232 58 -240 60 -8 2 -62 15 -120 30 -58 14
-114 28 -125 29 -11 2 -29 6 -40 9 -11 3 -31 9 -45 11 -14 3 -53 12 -88 20
-37 8 -65 10 -68 4z"/>
<path d="M3671 5859 c-10 -4 -20 -16 -22 -26 -3 -10 -4 -892 -4 -1960 1 -1508
4 -1944 13 -1956 11 -12 136 -14 932 -14 l920 0 1 21 c0 11 0 410 0 886 -1
2326 -3 3050 -9 3051 -27 6 -1816 3 -1831 -2z"/>
<path d="M6110 3884 l0 -1982 943 2 942 1 0 1964 c0 1504 -2 1967 -11 1980
-11 15 -95 16 -943 16 l-931 1 0 -1982z"/>
<path d="M209 1843 c-1 -4 -1 -11 0 -15 0 -3 -6 -28 -15 -55 -8 -26 -17 -57
-19 -68 -3 -11 -25 -94 -50 -185 -25 -91 -48 -176 -51 -190 -2 -14 -13 -54
-23 -90 -11 -36 -23 -78 -27 -95 -4 -16 -9 -37 -11 -45 -16 -62 -15 -88 5
-106 12 -11 75 -34 149 -53 70 -18 175 -47 233 -63 58 -16 112 -31 120 -33 46
-13 159 -45 188 -53 17 -6 32 -8 32 -5 0 3 7 -1 17 -8 9 -8 19 -13 22 -11 3 2
22 -1 41 -7 114 -34 208 -60 230 -65 14 -2 39 -9 55 -16 17 -6 32 -12 35 -12
3 0 10 -2 15 -4 21 -6 201 -55 220 -59 11 -3 43 -12 70 -20 304 -92 344 -99
345 -59 0 5 12 39 26 75 21 55 115 384 130 459 2 14 9 39 14 55 5 17 14 53 20
80 14 75 17 89 29 131 6 21 9 40 7 42 -2 2 -28 9 -58 17 -80 20 -384 103 -463
126 -38 12 -81 23 -95 26 -14 2 -70 17 -125 33 -82 23 -235 64 -280 74 -19 5
-100 27 -130 37 -133 41 -559 154 -622 165 -18 3 -34 2 -34 -3z"/>
<path d="M3669 1303 c-1 -2 -2 -6 -3 -10 -1 -5 -5 -14 -10 -21 -22 -35 -22
-646 0 -702 3 -8 8 -26 10 -40 3 -14 9 -28 13 -33 4 -4 418 -6 921 -5 l914 3
0 387 c0 352 -2 389 -17 406 -17 19 -47 19 -922 19 -498 0 -906 -2 -906 -4z"/>
<path d="M6125 1290 c-13 -14 -15 -75 -15 -398 0 -367 1 -382 19 -392 26 -13
1830 -14 1851 0 13 8 15 62 16 385 0 253 -3 383 -11 398 l-11 22 -917 1 c-837
0 -919 -1 -932 -16z"/>
</g>
</svg>
